<svg xmlns="http://www.w3.org/2000/svg" viewBox="0 0 1900.35 349.8"><title>Ресурс 1</title><path d="M515.17 75.54h-40.8l-2.8 26.4c-8.2 81.4-26.4 94.6-54 90.6l.6-24.4c10.8 1.4 25-3.2 31.2-87.6l2-28h88.2v140h-24.4zm83.2 117v-140H623v99.6l73.4-99.6H718v140h-24.6v-99.4l-73.4 99.4zm267-59.8h-64v59.8h-24.6v-140h24.6v57.2h64v-57.2h24.4v140h-24.4zm83.2 59.8v-140h24.6v99.6l73.4-99.6h21.6v140h-24.6v-99.4l-73.4 99.4zm241.6-48.4H1170l-31.4 48.4H1111l35.8-53.4c-13-6.6-24.6-19.4-24.6-38.8 0-25.8 16.8-48.4 57.6-48.4 9 0 26.6.6 34.8.6v140h-24.4zm0-23v-45.6c-3.4-.2-11.2-.6-15.4-.6-16.2 0-26.6 9.8-26.6 23.8 0 12.6 9.6 20.4 19.6 22.4zm207.99-70.8c41.6 0 73 28.6 73 72.2 0 42-31.4 72.2-73 72.2s-72.8-28.6-72.8-72.2c0-40.6 29.8-72.2 72.8-72.2zm0 121.4c29.4 0 47-21.6 47-49.2 0-29-20.6-49.2-47-49.2-26.8 0-46.8 20.2-46.8 49.2 0 28 20.64 49.2 46.8 49.2zm121.4-119.2h79v23h-54.4v117h-24.6zm209.99 80.2h-64v59.8H1641v-140h24.6v57.2h64v-57.2h24.4v140h-24.4zm146.45 11.4h-20.2l-31.4 48.4h-27.6l35.8-53.4c-13-6.6-24.6-19.4-24.6-38.8 0-25.8 16.8-48.4 57.6-48.4 9 0 26.6.6 34.8.6v140H1876zm0-23v-45.6c-3.4-.2-11.2-.6-15.4-.6-16.2 0-26.6 9.8-26.6 23.8 0 12.6 9.6 20.4 19.6 22.4zM429.39 262.47h8V300h24v-37.5h8V300h7.5v18.5h-7.5v-11h-40zm118.2 40.11c-4.4 4-10.9 5.9-16.9 5.9-14.6 0-24.1-9.3-24.1-23.5 0-13.1 8.4-23.5 23.2-23.5 11.6 0 20.9 8.2 20.9 20.6a26.11 26.11 0 0 1-.5 5.4h-34.6c.7 8.5 6.9 13.5 15.7 13.5 5.8 0 10.9-2 13.8-4.7zM515.09 281h27.3c-.4-7.4-5.2-12-13-12-8.2 0-13.39 5.07-14.3 12zm103.5 7.48h-25v19h-8v-45h8V281h25v-18.5h8v45h-8zm40.8-26.01h41v8h-16.5v37h-8v-37h-16.5zm73.69 0h8v5.3c3.1-3.6 9.1-6.3 15.3-6.3 12.8 0 20.8 9.5 20.8 22.8 0 13.7-9.3 24.2-23.4 24.2-4.8 0-9.5-1-12.7-3.1v22.1h-8zm8 12.7v22.3a20 20 0 0 0 12 3.5c9.6 0 15.6-6.9 15.6-16.4 0-9.1-5.3-15.6-14.6-15.6a17.1 17.1 0 0 0-13 6.21zm112.4-12.7h41v8H878v37h-8v-37h-16.5zm73.7 0h8.5v18h9.8c1.8-11.1 10.4-19 22.7-19 14.1 0 23.5 10 23.5 23.5s-9.6 23.5-23.5 23.5c-12.7 0-21.4-8.3-22.8-20h-9.7v19h-8.5zm41.3 38c8.3 0 14.2-6.1 14.2-15.5 0-9.2-5.6-15.5-14.2-15.5-8.4 0-14.3 6.2-14.3 15.5 0 9.51 6 15.51 14.3 15.51zm91.7-11.99h-25v19h-8v-45h8V281h25v-18.5h8v45h-8zm46.5 19v-45h8V296l26-33.5h8v45h-8V274l-26 33.5zm113.5-19h-25v19h-8v-45h8V281h25v-18.5h8v45h-8zm46.5-26.01h28.5V270h-20.5v37.5h-8zm60.5 3.1a28.94 28.94 0 0 1 15-4.1c12.8 0 17.3 6.7 17.3 18.4v27.6h-7.6v-5.8c-2.7 3.4-7 6.5-14.4 6.5-8.2 0-13.8-5.2-13.8-13.9 0-9.2 7.3-14.3 17-14.3 3.5 0 8.2.7 11.2 2.9 0-8.4-1.3-14.2-10.2-14.2a23.9 23.9 0 0 0-12.4 3.3zm24.7 29.6v-5.7a17 17 0 0 0-10.1-3c-4.8 0-9.6 2.2-9.6 7.4 0 4.3 2.9 7.1 8.1 7.1 5.9.03 9.3-3.09 11.6-5.79zm112.5-33.7c14.4 0 24 10 24 23.5s-9.6 23.5-24 23.5-24-10-24-23.5 9.62-23.5 24-23.5zm0 39.5c9 0 15.5-6.4 15.5-16 0-9.4-6.5-16-15.5-16-8.8 0-15.5 6.5-15.5 16s6.5 16.03 15.5 16.03zm59.5-38.5h8v5.3c3.1-3.6 9.1-6.3 15.3-6.3 12.8 0 20.8 9.5 20.8 22.8 0 13.7-9.3 24.2-23.4 24.2-4.8 0-9.5-1-12.7-3.1v22.1h-8zm8 12.7v22.3a20 20 0 0 0 12 3.5c9.6 0 15.6-6.9 15.6-16.4 0-9.1-5.3-15.6-14.6-15.6a17.1 17.1 0 0 0-13 6.21zm92.7 32.31c-6.6 16.1-10.8 20-17.2 20a14.9 14.9 0 0 1-8.5-2.8l2.6-6.1a12.15 12.15 0 0 0 5 1.5c3.8 0 6.6-3 9.6-10.2l1-2.4-21.6-45h9.6l13.2 28.6c1 2.3 1.8 4.5 2.7 6.8q.9-3.3 2.1-6.9l10.4-28.5h9.1zm44.5-45.01h10l15.4 21.7-16.5 23.3h-9.8l17.2-23.3zm27.4 0h8v45h-8zm19.1 21.7l17.5 23.3h-9.9l-16.7-23.3 15.5-21.7h9.9zm50.2 23.31v-45h8V296l26-33.5h8v45h-8V274l-26 33.5zM1880 262.47v45h-8v-15h-8.7l-11 15h-9.7l13-17a13.06 13.06 0 0 1-9.7-13c0-7.7 5.1-15 20.1-15zm-17.2 22.5h9.2V270h-7.3c-7.5 0-10.3 3.5-10.3 7.7-.02 4.58 4.38 7.3 8.38 7.3z" fill="#353534"/><path d="M174.93 349.8c-62.52 0-106.8-36-115-43.16-6.3-5.5-61.48-56-59.85-132.1C1.84 90.25 72.55 0 174.93 0c96.44 0 174.9 78.46 174.9 174.9s-78.46 174.9-174.9 174.9zm0-315.8c-38.24 0-74 16.09-100.84 45.3-24.37 26.57-39.35 62.45-40.06 96-1.3 60.65 43.16 101.31 48.24 105.7 6.64 5.8 42.3 34.75 92.66 34.75 77.69 0 140.9-63.21 140.9-140.9S252.62 34 174.93 34z" fill="#731e27"/><path fill="#731e27" d="M286.76 283.93L175.03 170.27 64.37 282.95l-24.26-23.82 134.91-137.37L311.01 260.1l-24.25 23.83z"/></svg>